<svg version="1.1" id="Layer_1" xmlns="http://www.w3.org/2000/svg" xmlns:xlink="http://www.w3.org/1999/xlink" x="0px" y="0px" viewBox="0 0 512.0009765625 512.0009765625" style="enable-background:new 0 0 512.001 512.001;" xml:space="preserve"  width="100%" height="100%"><rect id="svgEditorBackground" x="0" y="0" width="512.001" height="512.001" style="fill: none; stroke: none;"/><rect x="-50" y="-50" style="stroke-width: 1px; fill: rgb(255, 115, 64);" stroke="black" id="e1_rectangle" width="600" height="600"/>
<path style="fill:#CE9B57;" d="M143.344,151.299c-17.887,1.773-31.931,19.18-31.931,40.406s14.045,38.634,31.931,40.406V151.299z"/>
<g>
	<path style="fill:#DDAC64;" d="M368.685,151.299c17.887,1.773,31.931,19.18,31.931,40.406s-14.045,38.634-31.931,40.406V151.299z"/>
	<path style="fill:#DDAC64;" d="M256.015,360.335L256.015,360.335c-0.002,0-0.002,0-0.002,0c-17.429,0-33.942-8.667-48.707-24.147   v70.972h0.009c0.203,29.523,21.918,53.386,48.685,53.386s48.483-23.863,48.685-53.386h0.009v-70.943   C289.937,351.675,273.433,360.335,256.015,360.335z"/>
</g>
<path style="fill:#CC9348;" d="M229.793,407.158h-0.009v-53.561c-7.836-4.088-15.362-9.949-22.479-17.409v70.972h0.009  c0.203,29.523,21.918,53.386,48.685,53.386c3.871,0,7.63-0.513,11.239-1.456C245.886,453.511,229.966,432.413,229.793,407.158z"/>
<path style="fill:#EFCA83;" d="M354.668,41.84L305.131,8.165c-15.922-6.079-27.893-7.367-27.893-7.367  c-29.235-4.031-65.776,7.865-87.978,21.024c-9.884-6.883-21.892-10.93-34.85-10.93c-33.732,0-61.079,27.346-61.079,61.079  c0,29.729,21.245,55.6,49.379,61.061c-0.48,3.165-0.484,5.169-0.484,5.169v129.331c0,4.909,0.311,9.747,0.914,14.491  c7.118,55.999,54.934,99.293,112.869,99.293c0,0,0,0,0.002,0c57.935,0,105.751-43.294,112.869-99.293  c0.603-4.744,0.914-9.582,0.914-14.491v-35.42v-55.272v-14.336l13.337-51.151C380.071,80.385,368.797,57.99,354.668,41.84z"/>
<path style="fill:#E0B063;" d="M166.191,282.021c-0.603-4.744-0.914-9.582-0.914-14.491V138.2c0,0,0.004-2.004,0.484-5.169  c-28.134-5.46-49.379-31.332-49.379-61.061c0-29.798,21.344-54.597,49.574-59.98c-3.737-0.718-7.594-1.097-11.543-1.097  c-33.732,0-61.079,27.346-61.079,61.079c0,29.729,21.245,55.6,49.379,61.061c-0.48,3.165-0.484,5.169-0.484,5.169v129.331  c0,4.909,0.311,9.747,0.914,14.491c7.118,55.999,54.934,99.293,112.869,99.293c0,0,0,0,0.002,0c3.89,0,7.734-0.202,11.522-0.582  C214.889,375.437,172.831,334.26,166.191,282.021z"/>
<path style="fill:#F9CF8C;" d="M235.83,262.16c0,42.553,9.532,82.875,26.549,118.973c55.04-3.036,99.65-45.177,106.506-99.111  c0.603-4.744,0.914-9.582,0.914-14.491v-35.42v-55.272v-14.336l13.337-51.151c-3.065-30.968-14.338-53.362-28.467-69.511  l-5.939-4.038C280.221,88.714,235.83,170.25,235.83,262.16z"/>
<g>
	<circle style="fill:#898790;" cx="199.876" cy="222.47" r="16.331"/>
	<circle style="fill:#898790;" cx="310.916" cy="222.47" r="16.331"/>
</g>
<path style="fill:#935B2A;" d="M368.917,281.479c-8.766,11.133-20.546,19.834-35.95,19.863  c-19.068-0.088-26.332-20.524-48.63-20.352c-7.434,0.017-16.544,2.329-28.336,8.473c-11.792-6.145-20.902-8.456-28.336-8.473  c-22.298-0.172-29.564,20.264-48.631,20.352c-15.404-0.029-27.183-8.73-35.95-19.863c0.012,0.096,0.022,0.192,0.031,0.288  c-0.01-0.013-0.022-0.026-0.031-0.039c0.011,0.098,0.02,0.196,0.032,0.294c2.895,22.772,12.518,43.442,26.815,59.955l0.156,0.142  c5.869,6.756,12.522,12.81,19.817,18.027l0.13,0.119c0.659,0.469,1.334,0.916,2.005,1.372c0.176,0.12,0.35,0.243,0.53,0.361  c0.64,0.432,1.284,0.855,1.934,1.274c0.217,0.142,0.441,0.278,0.66,0.417c1.083,0.686,2.176,1.355,3.282,2.005  c0.36,0.212,0.723,0.422,1.087,0.63c0.946,0.541,1.899,1.068,2.859,1.584c0.438,0.234,0.875,0.467,1.316,0.696  c0.592,0.307,1.185,0.612,1.784,0.909c0.813,0.404,1.632,0.798,2.456,1.182c0.567,0.264,1.136,0.521,1.706,0.775  c0.578,0.259,1.16,0.51,1.743,0.758c0.777,0.331,1.557,0.655,2.344,0.969c0.637,0.255,1.277,0.505,1.919,0.749  c0.522,0.199,1.043,0.396,1.567,0.585c0.949,0.345,1.903,0.674,2.862,0.994c0.5,0.165,1.003,0.327,1.507,0.487  c0.902,0.286,1.808,0.562,2.719,0.825c0.514,0.149,1.03,0.291,1.547,0.433c0.832,0.228,1.666,0.446,2.505,0.656  c0.417,0.105,0.832,0.211,1.25,0.311c1.09,0.258,2.185,0.496,3.284,0.724c0.424,0.087,0.848,0.172,1.272,0.254  c1.135,0.22,2.272,0.427,3.417,0.613c0.342,0.056,0.685,0.105,1.028,0.157c1.051,0.163,2.107,0.309,3.168,0.443  c0.262,0.032,0.522,0.07,0.784,0.102c1.238,0.145,2.484,0.264,3.733,0.37c0.331,0.027,0.66,0.056,0.99,0.08  c1.26,0.096,2.526,0.172,3.795,0.226c0.27,0.011,0.541,0.019,0.813,0.028c1.344,0.048,2.691,0.079,4.047,0.079  c0.013,0,0.026,0.001,0.04,0.001c0.002,0,0.002,0,0.002,0c0.004,0,0.009,0,0.013,0s0.009,0,0.013,0c0,0,0,0,0.002,0  c0.015,0,0.027-0.001,0.04-0.001c1.356,0,2.703-0.031,4.047-0.079c0.271-0.01,0.542-0.018,0.813-0.028  c1.27-0.055,2.535-0.13,3.795-0.226c0.33-0.025,0.66-0.054,0.99-0.08c1.249-0.106,2.494-0.225,3.733-0.37  c0.262-0.031,0.523-0.068,0.784-0.102c1.061-0.133,2.117-0.28,3.168-0.443c0.343-0.052,0.686-0.102,1.028-0.157  c1.145-0.186,2.283-0.394,3.416-0.613c0.426-0.083,0.85-0.167,1.274-0.254c1.1-0.228,2.196-0.466,3.284-0.724  c0.418-0.1,0.833-0.207,1.25-0.311c0.839-0.21,1.673-0.428,2.505-0.656c0.516-0.142,1.033-0.283,1.547-0.433  c0.91-0.263,1.817-0.54,2.719-0.825c0.503-0.161,1.006-0.321,1.507-0.487c0.959-0.319,1.915-0.649,2.862-0.994  c0.525-0.19,1.045-0.388,1.566-0.585c0.643-0.244,1.284-0.494,1.923-0.751c0.784-0.313,1.565-0.637,2.342-0.968  c0.582-0.249,1.164-0.5,1.743-0.758c0.571-0.255,1.14-0.511,1.706-0.775c0.824-0.385,1.643-0.778,2.456-1.182  c0.599-0.297,1.191-0.601,1.784-0.909c0.442-0.229,0.878-0.462,1.315-0.696c0.961-0.515,1.916-1.043,2.86-1.584  c0.364-0.209,0.726-0.417,1.087-0.63c1.106-0.65,2.2-1.319,3.281-2.005c0.221-0.139,0.442-0.275,0.661-0.417  c0.65-0.418,1.294-0.843,1.935-1.274c0.177-0.119,0.351-0.242,0.529-0.361c0.67-0.456,1.346-0.902,2.005-1.372l0.13-0.119  c7.294-5.217,13.949-11.271,19.818-18.027l0.156-0.142c14.297-16.513,23.92-37.183,26.815-59.955  c0.013-0.098,0.022-0.196,0.032-0.294c-0.011,0.013-0.022,0.026-0.032,0.039C368.894,281.671,368.904,281.575,368.917,281.479z"/>
<path style="fill:#844719;" d="M259.992,381.236c0.386-0.013,0.771-0.027,1.154-0.045c1.193-0.054,2.382-0.122,3.564-0.213  c0.12-0.009,0.241-0.019,0.36-0.029c0.342-0.027,0.682-0.06,1.024-0.09c0.459-0.04,0.914-0.091,1.372-0.136  c-46.304-4.686-84.394-37.135-97.391-80.442c-11.112-2.63-20.011-9.935-26.992-18.801c0.022,0.18,0.037,0.361,0.06,0.541  c2.904,22.854,12.59,43.589,26.972,60.131c0.666,0.766,1.343,1.519,2.027,2.266c0.133,0.145,0.268,0.29,0.4,0.434  c0.633,0.682,1.275,1.359,1.924,2.025c0.078,0.08,0.157,0.164,0.235,0.243c1.497,1.529,3.038,3.016,4.618,4.457  c0.104,0.095,0.207,0.187,0.309,0.281c0.749,0.678,1.506,1.348,2.272,2.006c0.035,0.03,0.07,0.061,0.105,0.09  c1.657,1.421,3.358,2.794,5.095,4.118c0.071,0.055,0.143,0.109,0.214,0.164c0.851,0.645,1.707,1.278,2.577,1.899  c0.719,0.514,1.442,1.02,2.172,1.517c0.166,0.115,0.333,0.231,0.502,0.343c0.64,0.432,1.284,0.855,1.934,1.274  c0.201,0.129,0.403,0.255,0.606,0.383c0.023,0.016,0.047,0.029,0.07,0.043c1.074,0.68,2.159,1.345,3.256,1.99  c0.006,0.004,0.013,0.008,0.02,0.012c0.357,0.211,0.717,0.418,1.078,0.625c0.943,0.54,1.895,1.066,2.854,1.58  c0.007,0.003,0.013,0.007,0.02,0.01c0.434,0.232,0.864,0.463,1.3,0.688c0.116,0.06,0.231,0.117,0.347,0.176  c0.478,0.248,0.956,0.493,1.44,0.733c0.813,0.404,1.632,0.798,2.456,1.182c0.271,0.126,0.543,0.248,0.815,0.37  c0.304,0.139,0.61,0.279,0.914,0.416c0.571,0.254,1.143,0.502,1.719,0.747c0.767,0.327,1.539,0.647,2.315,0.957  c0.022,0.009,0.043,0.018,0.066,0.026c0.626,0.251,1.252,0.495,1.882,0.735c0.522,0.199,1.043,0.396,1.567,0.585  c0.942,0.342,1.889,0.67,2.844,0.987c0.514,0.171,1.033,0.338,1.551,0.501c0.893,0.283,1.791,0.556,2.692,0.817  c0.507,0.147,1.017,0.287,1.527,0.427c0.011,0.002,0.021,0.006,0.03,0.009c0.827,0.226,1.659,0.444,2.494,0.652  c0.113,0.028,0.224,0.056,0.336,0.084c0.309,0.076,0.617,0.157,0.927,0.23c1.08,0.255,2.165,0.492,3.256,0.719  c0.435,0.089,0.87,0.176,1.306,0.261c1.129,0.219,2.26,0.425,3.4,0.61c0.342,0.056,0.685,0.105,1.028,0.157  c1.044,0.162,2.092,0.307,3.146,0.439c0.273,0.035,0.545,0.074,0.82,0.106c1.232,0.145,2.472,0.263,3.715,0.369  c0.058,0.004,0.117,0.009,0.173,0.014c0.273,0.022,0.546,0.046,0.82,0.066c1.253,0.096,2.514,0.171,3.778,0.225  c0.283,0.012,0.567,0.02,0.85,0.029c1.337,0.048,2.679,0.079,4.027,0.079c0.007,0,0.012,0,0.019,0c0.017,0,0.033,0.001,0.05,0.001  c0,0,0,0,0.002,0c0.014,0,0.027-0.001,0.04-0.001C257.373,381.313,258.685,381.281,259.992,381.236z"/>
<path style="fill:#A06335;" d="M332.966,301.342c-19.068-0.088-26.332-20.524-48.63-20.352c-7.434,0.017-16.544,2.329-28.336,8.473  c-7.482-3.899-13.88-6.251-19.46-7.456c2.475,35.244,11.488,68.68,25.832,99.111c0.78-0.043,1.561-0.08,2.339-0.139  c0.33-0.025,0.66-0.054,0.99-0.08c1.249-0.106,2.494-0.225,3.733-0.37c0.262-0.031,0.523-0.068,0.784-0.101  c1.061-0.133,2.117-0.28,3.168-0.443c0.343-0.052,0.686-0.101,1.028-0.157c1.145-0.186,2.283-0.394,3.416-0.613  c0.426-0.083,0.85-0.167,1.274-0.254c1.1-0.228,2.196-0.466,3.284-0.724c0.418-0.1,0.833-0.207,1.25-0.311  c0.839-0.21,1.673-0.428,2.505-0.656c0.516-0.142,1.033-0.283,1.547-0.433c0.91-0.263,1.817-0.54,2.719-0.825  c0.503-0.161,1.006-0.321,1.507-0.487c0.959-0.319,1.915-0.649,2.862-0.994c0.525-0.19,1.045-0.388,1.566-0.585  c0.643-0.244,1.284-0.494,1.923-0.751c0.784-0.313,1.565-0.637,2.342-0.968c0.582-0.249,1.164-0.5,1.743-0.758  c0.571-0.255,1.14-0.511,1.706-0.775c0.824-0.385,1.643-0.778,2.456-1.182c0.599-0.297,1.191-0.601,1.784-0.909  c0.442-0.229,0.878-0.462,1.315-0.696c0.961-0.515,1.916-1.043,2.86-1.584c0.364-0.209,0.726-0.417,1.087-0.63  c1.106-0.65,2.2-1.319,3.281-2.005c0.221-0.139,0.442-0.275,0.661-0.417c0.65-0.418,1.294-0.843,1.935-1.274  c0.177-0.119,0.351-0.242,0.529-0.361c0.67-0.456,1.346-0.902,2.005-1.372l0.13-0.119c7.294-5.217,13.949-11.271,19.818-18.027  l0.156-0.142c14.297-16.513,23.92-37.183,26.815-59.955c0.013-0.098,0.022-0.196,0.032-0.294c-0.011,0.013-0.022,0.026-0.032,0.039  c0.01-0.096,0.02-0.192,0.032-0.288C360.15,292.612,348.371,301.312,332.966,301.342z"/>
<path style="fill:#935B2A;" d="M317.841,13.766C296.029,2.823,277.239,0.798,277.239,0.798  c-29.235-4.031-65.776,7.865-87.978,21.024c-9.884-6.883-21.892-10.93-34.85-10.93c-33.732,0-61.079,27.346-61.079,61.079  c0,29.729,21.245,55.6,49.379,61.061c0,0,71.093,13.172,138.747-24.745s88.34,34.834,88.34,54.217c0,0,5.229-2.685,12.328-6.545  c8.608-67.473-14.683-105.86-41.486-127.568"/>
<path style="fill:#844719;" d="M182.662,118.905c-28.135-5.46-49.379-31.332-49.379-61.061c0-18.867,8.56-35.732,22.002-46.935  c-0.291-0.004-0.58-0.018-0.872-0.018c-33.732,0-61.079,27.346-61.079,61.079c0,29.729,21.245,55.6,49.379,61.061  c0,0,63.02,11.669,126.857-18.61C221.767,126.143,182.662,118.905,182.662,118.905z"/>
<path style="fill:#A06335;" d="M282.321,107.819c66.964-36.811,87.478,35.384,87.478,54.683c0,0,5.229-2.685,12.328-6.545  c7.584-59.45-9.597-96.31-32.124-119.085C323.494,56.342,300.548,80.376,282.321,107.819z"/>
<path style="fill:#3CB5D6;" d="M377.376,398.523h-44.898h-1.787H316.65h-11.958v3.979h-0.009  c-0.203,13.36-21.918,24.159-48.685,24.159s-48.483-10.799-48.685-24.159h-0.009v-3.979h-11.956h-14.042h-1.787h-44.898  c-48.648,0-88.082,39.441-88.082,88.084v12.011c0,7.393,5.992,13.382,13.382,13.382h79.254h27.324h285.578  c7.39,0,13.382-5.99,13.382-13.382v-12.011C465.462,437.964,426.024,398.523,377.376,398.523z"/>
<path style="fill:#FF6342;" d="M217.011,290.292c-3.426,3.797-5.373,8.151-5.373,12.778c0,14.781,19.863,26.763,44.362,26.763  c24.501,0,44.362-11.983,44.362-26.763c0-4.627-1.947-8.981-5.373-12.778H217.011z"/>
<path style="fill:#DDAC64;" d="M256.013,264.219c-4.619,0-8.364-3.744-8.364-8.364v-20.817c0-4.62,3.745-8.364,8.364-8.364  c4.619,0,8.364,3.744,8.364,8.364v20.817C264.376,260.475,260.632,264.219,256.013,264.219z"/>
<g>
	<path style="fill:#7F481F;" d="M223.462,193.509c-1.623,0-3.262-0.472-4.703-1.454c-18.325-12.49-37.653-2.333-38.467-1.895   c-4.051,2.186-9.124,0.694-11.329-3.343c-2.206-4.039-0.755-9.089,3.273-11.317c1.171-0.647,28.984-15.647,55.945,2.732   c3.818,2.602,4.803,7.805,2.2,11.622C228.762,192.231,226.134,193.509,223.462,193.509z"/>
	<path style="fill:#7F481F;" d="M288.537,193.509c-2.673,0-5.299-1.278-6.919-3.653c-2.602-3.817-1.617-9.021,2.2-11.622   c26.962-18.377,54.776-3.379,55.948-2.732c4.043,2.236,5.507,7.325,3.272,11.367c-2.23,4.029-7.299,5.497-11.335,3.289   c-0.92-0.495-20.193-10.556-38.462,1.898C291.799,193.038,290.16,193.509,288.537,193.509z"/>
</g>
<path style="fill:#874C21;" d="M320.186,283.605c-0.648-0.581-1.59-0.7-2.362-0.294l-0.734,0.385  c-0.054,0.028-0.113,0.057-0.172,0.087l-1.014,0.466l-0.397,0.167c-0.135,0.057-0.272,0.11-0.398,0.159l-0.178,0.065  c-0.088,0.035-0.168,0.066-0.252,0.095l-0.956,0.32l-0.213,0.064c-0.071,0.022-0.153,0.047-0.225,0.066l-0.241,0.067  c-0.089,0.026-0.172,0.046-0.258,0.069l-0.242,0.06c-0.081,0.021-0.167,0.04-0.242,0.059l-0.254,0.058  c-0.086,0.019-0.173,0.035-0.262,0.055l-0.771,0.143c-0.108,0.019-0.223,0.035-0.348,0.054c-0.075,0.012-0.151,0.022-0.231,0.033  c-0.158,0.022-0.316,0.041-0.484,0.06l-0.809,0.07c-0.095,0.008-0.196,0.016-0.273,0.02l-0.311,0.013  c-0.094,0.006-0.185,0.008-0.282,0.01c-0.093,0.003-0.184,0.004-0.277,0.006l-0.304,0.001c-0.091,0-0.184,0-0.287-0.002  c-0.1-0.001-0.202-0.006-0.31-0.009c-0.094-0.001-0.187-0.007-0.265-0.009l-0.338-0.021c-0.09-0.006-0.185-0.011-0.283-0.019  c-0.109-0.009-0.22-0.019-0.331-0.028l-0.283-0.028c-0.097-0.009-0.199-0.022-0.301-0.033l-0.314-0.04  c-0.207-0.029-0.411-0.06-0.59-0.09l-0.228-0.04c-0.143-0.025-0.289-0.052-0.442-0.083c-0.062-0.013-0.123-0.026-0.19-0.04  l-0.115-0.025c-0.114-0.023-0.226-0.047-0.344-0.076l-0.292-0.07c-0.123-0.029-0.244-0.06-0.361-0.093l-0.304-0.081  c-0.119-0.035-0.242-0.071-0.37-0.107c-0.096-0.029-0.199-0.061-0.297-0.093c-0.125-0.037-0.249-0.077-0.379-0.12  c-0.098-0.032-0.2-0.067-0.303-0.103c-0.125-0.042-0.252-0.088-0.381-0.135l-0.04-0.017c-0.089-0.031-0.176-0.064-0.268-0.098  c-0.124-0.047-0.25-0.098-0.371-0.145l-0.317-0.127c-0.139-0.06-0.283-0.12-0.438-0.188l-0.26-0.113  c-0.178-0.08-0.357-0.165-0.548-0.253l-0.159-0.076c-0.214-0.104-0.43-0.213-0.648-0.325l-6.366-4.183  c-0.32-0.219-0.618-0.414-0.931-0.613l-0.468-0.296c-0.096-0.059-0.191-0.117-0.283-0.173c-0.105-0.065-0.211-0.125-0.318-0.187  l-0.468-0.275c-0.112-0.065-0.226-0.125-0.335-0.185l-0.449-0.249c-0.113-0.06-0.226-0.12-0.342-0.18l-0.429-0.222  c-0.261-0.132-0.516-0.255-0.795-0.386l-0.292-0.135c-0.155-0.071-0.307-0.141-0.478-0.215l-0.404-0.173  c-0.116-0.049-0.23-0.098-0.351-0.147l-0.441-0.175c-0.108-0.042-0.216-0.085-0.322-0.125c-0.093-0.035-0.185-0.069-0.269-0.099  l-0.174-0.064c-0.107-0.039-0.212-0.077-0.335-0.119l-0.335-0.114c-0.134-0.046-0.272-0.091-0.404-0.133  c-0.1-0.032-0.2-0.062-0.3-0.095l-0.051-0.016c-0.136-0.041-0.271-0.081-0.401-0.119c-0.098-0.028-0.192-0.056-0.297-0.084  l-0.067-0.019c-0.127-0.036-0.257-0.07-0.385-0.105c-0.118-0.031-0.232-0.06-0.355-0.091c-0.128-0.031-0.261-0.064-0.404-0.096  l-0.338-0.077c-0.129-0.029-0.261-0.059-0.386-0.083c-0.117-0.026-0.231-0.048-0.352-0.074c-0.13-0.023-0.262-0.048-0.38-0.07  c-0.119-0.021-0.234-0.041-0.345-0.06c-0.128-0.022-0.259-0.042-0.404-0.064l-0.323-0.05c-0.128-0.018-0.259-0.033-0.381-0.05  l-0.049-0.007c-0.1-0.013-0.193-0.025-0.279-0.035c-0.134-0.017-0.265-0.028-0.395-0.041c-0.112-0.011-0.214-0.022-0.314-0.03  c-0.096-0.009-0.194-0.018-0.292-0.025l-0.418-0.031c-0.115-0.009-0.23-0.014-0.347-0.019l-0.34-0.019  c-0.12-0.004-0.233-0.007-0.338-0.011l-0.349-0.01c-0.113-0.001-0.22-0.002-0.327-0.002h-0.34c-0.21,0.001-0.399,0.006-0.577,0.01  l-0.088,0.002c-0.248,0.007-0.47,0.017-0.719,0.03l-0.115,0.008c-0.169,0.011-0.341,0.022-0.535,0.038l-0.199,0.016  c-0.147,0.016-0.289,0.026-0.44,0.042l-0.281,0.031c-0.113,0.011-0.225,0.023-0.359,0.04l-0.293,0.039  c-0.104,0.013-0.211,0.027-0.332,0.046l-0.331,0.051c-0.094,0.016-0.183,0.029-0.304,0.052l-0.832,0.154l-0.592,0.124  c-0.114,0.027-0.225,0.051-0.347,0.081l-0.231,0.055c-0.119,0.029-0.229,0.058-0.34,0.085l-0.246,0.066  c-0.105,0.028-0.211,0.059-0.341,0.095l-0.759,0.224c-0.109,0.032-0.213,0.069-0.342,0.11l-0.719,0.244  c-0.105,0.037-0.206,0.075-0.311,0.113l-0.21,0.077c-0.101,0.04-0.21,0.081-0.304,0.118l-0.192,0.076  c-0.114,0.045-0.223,0.091-0.318,0.129l-0.166,0.068c-0.123,0.054-0.248,0.107-0.362,0.158l-0.075,0.032  c-0.347,0.156-0.654,0.299-0.965,0.453l-0.023,0.011c-0.132,0.066-0.261,0.132-0.405,0.205l-0.397,0.211  c-0.011,0.007-0.023,0.013-0.035,0.019l-0.514,0.289c-0.083,0.049-0.167,0.097-0.268,0.156l-0.109,0.067  c-0.09,0.054-0.169,0.103-0.246,0.151c-0.028,0.018-0.055,0.036-0.081,0.052l-1.288,0.883c-0.029,0.019-0.058,0.038-0.085,0.061  c-0.068,0.052-0.13,0.099-0.213,0.164l-0.35,0.283c-0.055,0.047-0.115,0.097-0.198,0.168l-0.269,0.243  c-0.009,0.008-0.017,0.016-0.025,0.023c-0.059,0.055-0.115,0.107-0.163,0.156l-0.042,0.04c-0.075,0.074-0.13,0.132-0.18,0.184  l-0.045,0.046c-0.047,0.05-0.097,0.104-0.138,0.152l-0.059,0.067c-0.011,0.011-0.022,0.023-0.031,0.035  c-0.012-0.014-0.025-0.027-0.038-0.042l-0.03-0.035c-0.05-0.057-0.103-0.113-0.175-0.191l-0.047-0.049  c-0.035-0.037-0.087-0.089-0.142-0.145c-0.011-0.009-0.02-0.018-0.028-0.026l-0.046-0.046c-0.047-0.045-0.099-0.095-0.176-0.166  l-0.285-0.255c-0.066-0.058-0.122-0.106-0.18-0.155c-0.011-0.01-0.022-0.019-0.033-0.028l-0.329-0.265  c-0.074-0.058-0.136-0.105-0.201-0.154c-0.028-0.021-0.057-0.041-0.085-0.062l-1.291-0.883c-0.023-0.018-0.05-0.033-0.076-0.049  c-0.083-0.054-0.164-0.104-0.26-0.158l-0.502-0.297c-0.093-0.054-0.185-0.104-0.279-0.155l-0.133-0.074  c-0.101-0.054-0.203-0.107-0.299-0.157l-0.117-0.064c-0.128-0.066-0.261-0.133-0.368-0.185l-0.059-0.03  c-0.301-0.148-0.606-0.292-0.932-0.437l-0.094-0.04c-0.116-0.054-0.242-0.107-0.39-0.169l-0.117-0.047  c-0.122-0.052-0.231-0.097-0.362-0.149l-0.163-0.065c-0.109-0.042-0.212-0.083-0.338-0.132l-0.182-0.068  c-0.104-0.037-0.206-0.075-0.339-0.122l-0.708-0.24c-0.116-0.037-0.222-0.072-0.357-0.114l-0.752-0.222  c-0.109-0.03-0.213-0.06-0.335-0.091l-0.232-0.064c-0.114-0.027-0.221-0.056-0.333-0.084l-0.249-0.06  c-0.112-0.026-0.223-0.051-0.338-0.077l-0.581-0.123c-0.012-0.002-0.023-0.004-0.035-0.007l-0.841-0.156  c-0.099-0.017-0.202-0.032-0.304-0.049l-0.316-0.049c-0.117-0.018-0.235-0.033-0.366-0.051l-0.252-0.032  c-0.118-0.016-0.233-0.028-0.342-0.039l-0.291-0.033c-0.145-0.014-0.284-0.025-0.422-0.038l-0.232-0.02  c-0.172-0.014-0.346-0.025-0.502-0.035l-0.163-0.01c-0.213-0.013-0.438-0.022-0.674-0.029l-0.094-0.002  c-0.181-0.004-0.37-0.009-0.587-0.01h-0.333c-0.108,0-0.215,0.001-0.341,0.003l-0.332,0.009c-0.114,0.004-0.225,0.007-0.354,0.012  l-0.327,0.018c-0.117,0.007-0.235,0.01-0.37,0.02l-0.395,0.03c-0.096,0.008-0.193,0.014-0.297,0.025  c-0.101,0.009-0.207,0.02-0.299,0.029c-0.138,0.014-0.271,0.026-0.403,0.042l-0.319,0.04c-0.138,0.019-0.27,0.033-0.416,0.055  l-0.307,0.048c-0.133,0.019-0.265,0.04-0.396,0.062c-0.114,0.019-0.226,0.039-0.325,0.058c-0.138,0.023-0.27,0.049-0.409,0.076  c-0.112,0.02-0.223,0.043-0.336,0.066c-0.133,0.028-0.262,0.057-0.408,0.088l-0.339,0.077c-0.128,0.03-0.26,0.062-0.395,0.096  c-0.114,0.028-0.23,0.058-0.338,0.087c-0.137,0.036-0.269,0.071-0.405,0.109l-0.056,0.017c-0.097,0.025-0.196,0.055-0.289,0.081  c-0.139,0.041-0.275,0.08-0.409,0.122l-0.052,0.016c-0.098,0.031-0.199,0.061-0.299,0.094c-0.135,0.042-0.268,0.087-0.407,0.134  l-0.342,0.117c-0.119,0.04-0.238,0.084-0.355,0.126l-0.416,0.153c-0.103,0.04-0.207,0.08-0.311,0.122l-0.457,0.182  c-0.116,0.047-0.235,0.098-0.35,0.148l-0.41,0.175c-0.156,0.068-0.309,0.138-0.451,0.205l-0.323,0.146  c-0.26,0.123-0.514,0.248-0.792,0.388l-0.419,0.217c-0.113,0.058-0.226,0.117-0.361,0.188l-0.419,0.232  c-0.114,0.064-0.226,0.124-0.36,0.202l-0.449,0.263c-0.105,0.061-0.21,0.122-0.314,0.186c-0.095,0.058-0.19,0.116-0.285,0.176  l-0.467,0.292c-0.31,0.199-0.602,0.391-0.897,0.588l-6.447,4.231c-0.201,0.104-0.398,0.203-0.573,0.288l-0.205,0.096  c-0.174,0.083-0.35,0.167-0.531,0.246l-0.28,0.123c-0.135,0.059-0.277,0.119-0.401,0.172l-0.308,0.125  c-0.146,0.057-0.275,0.108-0.396,0.155l-0.312,0.116c-0.125,0.046-0.253,0.091-0.376,0.133c-0.103,0.036-0.205,0.07-0.313,0.106  c-0.12,0.04-0.244,0.08-0.361,0.116c-0.107,0.033-0.21,0.066-0.319,0.098c-0.115,0.035-0.236,0.069-0.357,0.104l-0.047,0.011  c-0.085,0.025-0.169,0.049-0.258,0.07c-0.118,0.032-0.239,0.064-0.364,0.093l-0.293,0.071c-0.109,0.026-0.222,0.049-0.341,0.074  l-0.304,0.066c-0.151,0.029-0.298,0.057-0.453,0.084l-0.183,0.033c-0.21,0.035-0.415,0.066-0.592,0.091l-0.347,0.043  c-0.1,0.011-0.201,0.025-0.307,0.036l-0.283,0.026c-0.105,0.01-0.213,0.02-0.329,0.028c-0.094,0.009-0.187,0.013-0.284,0.019  c-0.104,0.007-0.211,0.014-0.311,0.02c-0.1,0.003-0.193,0.009-0.292,0.01c-0.101,0.003-0.204,0.008-0.314,0.009  c-0.091,0.002-0.183,0.002-0.268,0.002l-0.592-0.007c-0.099-0.002-0.199-0.004-0.289-0.01l-0.271-0.011  c-0.106-0.007-0.205-0.014-0.313-0.022l-0.809-0.071c-0.157-0.018-0.317-0.037-0.471-0.058l-0.255-0.037  c-0.112-0.018-0.222-0.033-0.309-0.048l-0.325-0.057c-0.071-0.013-0.145-0.025-0.231-0.042l-0.477-0.098l-1.243-0.312  c-0.08-0.022-0.163-0.047-0.258-0.075c-0.06-0.017-0.125-0.037-0.193-0.057l-0.946-0.317l-0.438-0.163  c-0.127-0.049-0.265-0.104-0.383-0.152l-1.43-0.642l-0.904-0.471c-0.772-0.406-1.714-0.288-2.362,0.294  c-0.649,0.583-0.865,1.509-0.545,2.317c7.412,18.734,19.93,28.232,37.213,28.232h0.137c13.659-0.041,25.811-6.382,27.382-7.235  c1.55,0.841,13.69,7.194,27.383,7.235h0.135c0.002,0,0.003,0,0.006,0c17.279,0,29.798-9.498,37.208-28.232  C321.052,285.114,320.834,284.189,320.186,283.605z"/>
<path style="fill:#935227;" d="M317.824,283.312l-0.734,0.385c-0.054,0.028-0.113,0.057-0.172,0.087l-1.014,0.466l-0.397,0.167  c-0.135,0.057-0.272,0.11-0.398,0.159l-0.178,0.065c-0.088,0.035-0.168,0.066-0.252,0.095l-0.956,0.32l-0.213,0.064  c-0.071,0.022-0.153,0.047-0.225,0.066l-0.241,0.067c-0.089,0.026-0.172,0.046-0.258,0.069l-0.242,0.06  c-0.081,0.021-0.167,0.04-0.242,0.059l-0.254,0.058c-0.086,0.019-0.173,0.035-0.262,0.055l-0.771,0.143  c-0.108,0.019-0.223,0.035-0.348,0.054c-0.075,0.012-0.151,0.022-0.231,0.033c-0.158,0.022-0.316,0.041-0.484,0.06l-0.809,0.07  c-0.095,0.008-0.196,0.016-0.273,0.02l-0.311,0.013c-0.094,0.006-0.185,0.008-0.282,0.01c-0.093,0.003-0.184,0.004-0.277,0.006  l-0.304,0.001c-0.091,0-0.184,0-0.287-0.002c-0.1-0.001-0.202-0.006-0.31-0.009c-0.094-0.001-0.187-0.007-0.265-0.009l-0.338-0.021  c-0.09-0.006-0.185-0.011-0.283-0.019c-0.109-0.009-0.22-0.019-0.331-0.028l-0.283-0.028c-0.097-0.009-0.199-0.022-0.301-0.033  l-0.314-0.04c-0.207-0.029-0.411-0.06-0.59-0.09l-0.228-0.04c-0.143-0.025-0.289-0.052-0.442-0.083  c-0.062-0.013-0.123-0.026-0.19-0.04l-0.115-0.025c-0.114-0.023-0.226-0.047-0.344-0.076l-0.292-0.07  c-0.123-0.029-0.244-0.06-0.361-0.093l-0.304-0.081c-0.119-0.035-0.242-0.071-0.37-0.107c-0.096-0.029-0.199-0.061-0.297-0.093  c-0.125-0.037-0.249-0.077-0.379-0.12c-0.098-0.032-0.2-0.067-0.303-0.103c-0.125-0.042-0.252-0.088-0.381-0.135l-0.04-0.017  c-0.089-0.031-0.176-0.064-0.268-0.098c-0.124-0.047-0.25-0.098-0.371-0.145l-0.317-0.127c-0.139-0.06-0.283-0.12-0.438-0.188  l-0.26-0.113c-0.178-0.08-0.357-0.165-0.548-0.253l-0.159-0.076c-0.214-0.104-0.43-0.213-0.648-0.325l-6.366-4.183  c-0.32-0.219-0.618-0.414-0.931-0.613l-0.468-0.296c-0.096-0.059-0.191-0.117-0.283-0.173c-0.105-0.065-0.211-0.125-0.318-0.187  l-0.468-0.275c-0.112-0.065-0.226-0.125-0.335-0.185l-0.449-0.249c-0.113-0.06-0.226-0.12-0.342-0.18l-0.429-0.222  c-0.261-0.132-0.516-0.255-0.795-0.386l-0.292-0.135c-0.155-0.071-0.307-0.141-0.478-0.215l-0.404-0.173  c-0.116-0.049-0.23-0.098-0.351-0.147l-0.441-0.175c-0.108-0.042-0.216-0.085-0.322-0.125c-0.093-0.035-0.185-0.069-0.269-0.099  l-0.174-0.064c-0.107-0.039-0.212-0.077-0.335-0.119l-0.335-0.114c-0.134-0.046-0.272-0.091-0.404-0.133  c-0.1-0.032-0.2-0.062-0.3-0.095l-0.051-0.016c-0.136-0.041-0.271-0.081-0.401-0.119c-0.098-0.028-0.192-0.056-0.297-0.084  l-0.067-0.019c-0.127-0.036-0.257-0.07-0.385-0.105c-0.118-0.031-0.232-0.06-0.355-0.091c-0.128-0.031-0.261-0.064-0.404-0.096  l-0.338-0.077c-0.129-0.029-0.261-0.059-0.386-0.083c-0.117-0.026-0.231-0.048-0.352-0.074c-0.13-0.023-0.262-0.048-0.38-0.07  c-0.119-0.021-0.234-0.041-0.345-0.06c-0.128-0.022-0.259-0.042-0.404-0.064l-0.323-0.05c-0.128-0.018-0.259-0.033-0.381-0.05  l-0.049-0.007c-0.1-0.013-0.193-0.025-0.279-0.035c-0.134-0.017-0.265-0.028-0.395-0.041c-0.112-0.011-0.214-0.022-0.314-0.03  c-0.096-0.009-0.194-0.018-0.292-0.025l-0.418-0.031c-0.115-0.009-0.23-0.014-0.347-0.019l-0.34-0.019  c-0.12-0.004-0.233-0.007-0.338-0.011l-0.349-0.01c-0.113-0.001-0.22-0.002-0.327-0.002h-0.34c-0.21,0.001-0.399,0.006-0.577,0.01  l-0.088,0.002c-0.248,0.007-0.47,0.017-0.719,0.03l-0.115,0.008c-0.169,0.011-0.341,0.022-0.535,0.038l-0.199,0.016  c-0.147,0.016-0.289,0.026-0.44,0.042l-0.281,0.031c-0.113,0.011-0.225,0.023-0.359,0.04l-0.293,0.039  c-0.104,0.013-0.211,0.027-0.332,0.046l-0.331,0.051c-0.094,0.016-0.183,0.029-0.304,0.052l-0.832,0.154l-0.592,0.124  c-0.114,0.027-0.225,0.051-0.347,0.081l-0.231,0.055c-0.119,0.029-0.229,0.058-0.34,0.085l-0.246,0.066  c-0.105,0.028-0.211,0.059-0.341,0.095l-0.759,0.224c-0.109,0.032-0.213,0.069-0.342,0.11l-0.719,0.244  c-0.105,0.037-0.206,0.075-0.311,0.113l-0.21,0.077c-0.101,0.04-0.21,0.081-0.304,0.118l-0.192,0.076  c-0.114,0.045-0.223,0.091-0.318,0.129l-0.166,0.068c-0.123,0.054-0.248,0.107-0.362,0.158l-0.075,0.032  c-0.347,0.156-0.654,0.299-0.965,0.453l-0.023,0.011c-0.132,0.066-0.261,0.132-0.405,0.205l-0.397,0.211  c-0.011,0.007-0.023,0.013-0.035,0.019l-0.514,0.289c-0.083,0.049-0.167,0.097-0.268,0.156l-0.109,0.067  c-0.09,0.054-0.169,0.103-0.246,0.151c-0.028,0.018-0.055,0.036-0.081,0.052l-1.288,0.883c-0.029,0.019-0.058,0.038-0.085,0.061  c-0.068,0.052-0.13,0.099-0.213,0.164l-0.35,0.283c-0.055,0.047-0.115,0.097-0.198,0.168l-0.269,0.243  c-0.009,0.008-0.017,0.016-0.025,0.023c-0.059,0.055-0.115,0.107-0.163,0.156l-0.042,0.04c-0.075,0.074-0.13,0.132-0.18,0.184  l-0.045,0.046c-0.047,0.05-0.097,0.104-0.138,0.152l-0.059,0.067c-0.011,0.011-0.022,0.023-0.031,0.035  c-0.012-0.014-0.025-0.027-0.038-0.042l-0.03-0.035c-0.05-0.057-0.103-0.113-0.175-0.191l-0.047-0.049  c-0.035-0.037-0.087-0.089-0.142-0.145c-0.011-0.009-0.02-0.018-0.028-0.026l-0.046-0.046c-0.047-0.045-0.099-0.095-0.176-0.166  l-0.285-0.255c-0.066-0.058-0.122-0.106-0.18-0.155c-0.011-0.01-0.022-0.019-0.033-0.028l-0.329-0.265  c-0.074-0.058-0.136-0.105-0.201-0.154c-0.028-0.021-0.057-0.041-0.085-0.062l-1.291-0.883c-0.023-0.018-0.05-0.033-0.076-0.049  c-0.083-0.054-0.164-0.104-0.26-0.158l-0.502-0.297c-0.093-0.054-0.185-0.104-0.279-0.155l-0.133-0.074  c-0.101-0.054-0.203-0.107-0.299-0.157l-0.117-0.064c-0.128-0.066-0.261-0.133-0.368-0.185l-0.059-0.03  c-0.301-0.148-0.606-0.292-0.932-0.437l-0.094-0.04c-0.116-0.054-0.242-0.107-0.39-0.169l-0.117-0.047  c-0.122-0.052-0.231-0.097-0.362-0.149l-0.163-0.065c-0.109-0.042-0.212-0.083-0.338-0.132l-0.182-0.068  c-0.104-0.037-0.206-0.075-0.339-0.122l-0.708-0.24c-0.116-0.037-0.222-0.073-0.357-0.114l-0.752-0.222  c-0.109-0.03-0.213-0.06-0.335-0.091l-0.232-0.064c-0.114-0.027-0.221-0.056-0.333-0.084l-0.249-0.06  c-0.112-0.026-0.223-0.051-0.338-0.077l-0.581-0.123c-0.012-0.002-0.023-0.004-0.035-0.007l-0.841-0.156  c-0.099-0.017-0.202-0.032-0.304-0.049l-0.316-0.049c-0.117-0.018-0.235-0.033-0.366-0.051l-0.252-0.032  c-0.118-0.016-0.233-0.028-0.342-0.039l-0.291-0.033c-0.145-0.014-0.284-0.025-0.422-0.038l-0.232-0.02  c-0.172-0.014-0.346-0.025-0.502-0.035l-0.163-0.01c-0.213-0.013-0.438-0.022-0.674-0.029l-0.094-0.002  c-0.181-0.004-0.37-0.009-0.587-0.01h-0.333c-0.108,0-0.215,0.001-0.341,0.003l-0.332,0.009c-0.114,0.004-0.225,0.007-0.354,0.012  l-0.327,0.018c-0.117,0.007-0.235,0.01-0.37,0.02l-0.395,0.03c-0.022,0.002-0.046,0.004-0.068,0.006  c0.534,13.313,1.987,26.388,4.321,39.157c8.283-1.936,14.504-5.182,15.598-5.778c1.55,0.841,13.69,7.194,27.383,7.235h0.135  c0.002,0,0.003,0,0.006,0c17.279,0,29.798-9.498,37.208-28.232c0.32-0.81,0.103-1.735-0.545-2.317  C319.538,283.024,318.596,282.905,317.824,283.312z"/>
<path style="fill:#189CB2;" d="M69.806,498.618v-12.011c0-48.643,39.436-88.084,88.082-88.084h-23.265  c-48.647,0-88.082,39.441-88.082,88.084v12.011c0,7.393,5.992,13.382,13.382,13.382h23.265  C75.798,512.001,69.806,506.011,69.806,498.618z"/>
<path style="fill:#45C4D8;" d="M377.376,398.523h-44.898h-1.787H316.65h-11.958v3.979h-0.009  c-0.129,8.504-8.982,15.965-22.297,20.27c24.366,36.773,57.197,67.442,95.722,89.229h73.969c7.39,0,13.382-5.99,13.382-13.382  v-12.011C465.462,437.964,426.024,398.523,377.376,398.523z"/>
<g>
</g>
<g>
</g>
<g>
</g>
<g>
</g>
<g>
</g>
<g>
</g>
<g>
</g>
<g>
</g>
<g>
</g>
<g>
</g>
<g>
</g>
<g>
</g>
<g>
</g>
<g>
</g>
<g>
</g>
</svg>