<?xml version="1.0" encoding="iso-8859-1"?>
<!-- Generator: Adobe Illustrator 19.0.0, SVG Export Plug-In . SVG Version: 6.00 Build 0)  -->
<svg version="1.1" id="Layer_1" xmlns="http://www.w3.org/2000/svg" xmlns:xlink="http://www.w3.org/1999/xlink" x="0px" y="0px"
	 viewBox="0 0 508 508" style="enable-background:new 0 0 508 508;" xml:space="preserve">
<circle style="fill:#90DFAA;" cx="254" cy="254" r="254"/>
<path style="fill:#2C9984;" d="M68,427.2c46.4,49.6,112.4,80.8,186,80.8s139.6-31.2,186-80.8H68z"/>
<path style="fill:#FFFFFF;" d="M274,133.6h-40V97.2c0-1.2,1.2-2.4,2.4-2.4h35.2c1.2,0,2.4,1.2,2.4,2.4V133.6z"/>
<g>
	<rect x="234" y="108.4" style="fill:#E6E9EE;" width="40" height="25.2"/>
	<polygon style="fill:#E6E9EE;" points="324.8,335.6 296,335.6 326.4,427.2 355.2,427.2 	"/>
</g>
<polygon style="fill:#CED5E0;" points="333.6,362.4 324.8,335.6 296,335.6 304.8,362.4 "/>
<polygon style="fill:#E6E9EE;" points="183.2,335.6 212,335.6 181.6,427.2 152.8,427.2 "/>
<polygon style="fill:#CED5E0;" points="174.4,362.4 183.2,335.6 212,335.6 203.2,362.4 "/>
<path style="fill:#FFFFFF;" d="M395.6,321.2H112.4c-8.4,0-15.6-6.8-15.6-15.6V128.4c0-8.4,6.8-15.6,15.6-15.6h282.8
	c8.4,0,15.6,6.8,15.6,15.6V306C410.8,314.4,404,321.2,395.6,321.2z"/>
<polygon style="fill:#324A5E;" points="112.4,306 112.4,128.4 395.6,128.4 395.6,306 395.6,306 "/>
<path style="fill:#E6E9EE;" d="M422.8,321.2H85.2c-1.2,0-2,0.8-2,2v19.2c0,1.2,0.8,2,2,2h338c1.2,0,2-0.8,2-2v-19.2
	C424.8,322,424,321.2,422.8,321.2z"/>
<g>
	<path style="fill:#FFFFFF;" d="M176.8,221.2v-8h10v8h5.2v8.8h-5.2v11.2h-10V230H158v-8l16.4-27.2h11.2L170,221.2H176.8z"/>
	<path style="fill:#FFFFFF;" d="M209.2,234v-12h-11.6v-8h11.6v-12h9.2v12H230v8h-11.6v12H209.2z"/>
	<path style="fill:#FFFFFF;" d="M254.4,221.2v-8h10v8h5.2v8.8h-5.2v11.2h-10V230h-18.8v-8l16.4-27.2h11.2l-15.6,26.4H254.4z"/>
	<path style="fill:#FFFFFF;" d="M275.6,205.6H308v8h-32.4V205.6z M275.6,222H308v8h-32.4V222z"/>
	<path style="fill:#FFFFFF;" d="M320.8,197.6c3.2-2.4,6.8-3.6,11.6-3.6c4.4,0,8.4,1.2,11.6,3.6c3.2,2.4,4.4,5.6,4.4,8.8
		c0,3.6-1.2,6.8-4,9.2c4,2.8,5.6,6.8,5.6,11.6c0,4-1.6,7.6-4.8,10.4c-3.2,2.8-7.6,4-12.8,4c-5.2,0-9.6-1.2-12.8-4
		c-3.2-2.8-4.8-6.4-4.8-10.4c0-4.8,2-8.8,5.6-11.6c-2.8-2.8-4-5.6-4-9.2C316.4,202.8,317.6,200,320.8,197.6z M327.2,231.6
		c1.6,1.2,3.2,1.6,5.2,1.6s3.6-0.4,5.2-1.6c1.6-1.2,2.4-2.4,2.4-4.4s-0.8-3.6-2.4-4.4c-1.6-1.2-3.2-1.6-5.2-1.6s-3.6,0.4-5.2,1.6
		c-1.6,1.2-2.4,2.4-2.4,4.4C324.8,228.8,325.6,230.4,327.2,231.6z M328,211.2c1.2,1.2,2.8,1.6,4.4,1.6s3.2-0.4,4.4-1.6
		c1.2-1.2,2-2.4,2-4s-0.8-2.8-2-4s-2.8-1.6-4.4-1.6s-3.2,0.4-4.4,1.6c-1.2,1.2-2,2.4-2,4S326.8,210,328,211.2z"/>
</g>
<g>
</g>
<g>
</g>
<g>
</g>
<g>
</g>
<g>
</g>
<g>
</g>
<g>
</g>
<g>
</g>
<g>
</g>
<g>
</g>
<g>
</g>
<g>
</g>
<g>
</g>
<g>
</g>
<g>
</g>
</svg>
